<mxfile host="app.diagrams.net" modified="2023-06-12T09:35:53.109Z" agent="Mozilla/5.0 (Windows NT 10.0; Win64; x64) AppleWebKit/537.36 (KHTML, like Gecko) Chrome/114.0.0.0 Safari/537.36" etag="Q8Ssc7B92mKTo7yJBU_A" version="21.3.8" type="device">
  <diagram name="Page-1" id="jE9_Ny7zacltV2LYeuiw">
    <mxGraphModel dx="1500" dy="827" grid="1" gridSize="10" guides="1" tooltips="1" connect="1" arrows="1" fold="1" page="1" pageScale="1" pageWidth="850" pageHeight="1100" math="0" shadow="0">
      <root>
        <mxCell id="0" />
        <mxCell id="1" parent="0" />
        <mxCell id="teNvgoAa5VFsvgRmOalm-21" style="edgeStyle=orthogonalEdgeStyle;rounded=0;orthogonalLoop=1;jettySize=auto;html=1;entryX=0.5;entryY=0;entryDx=0;entryDy=0;" edge="1" parent="1" source="_d4l0Of2Ugj4WHg13rGI-1" target="teNvgoAa5VFsvgRmOalm-1">
          <mxGeometry relative="1" as="geometry">
            <Array as="points">
              <mxPoint x="243" y="90" />
              <mxPoint x="120" y="90" />
            </Array>
          </mxGeometry>
        </mxCell>
        <mxCell id="teNvgoAa5VFsvgRmOalm-22" style="edgeStyle=orthogonalEdgeStyle;rounded=0;orthogonalLoop=1;jettySize=auto;html=1;entryX=0.5;entryY=0;entryDx=0;entryDy=0;" edge="1" parent="1" source="_d4l0Of2Ugj4WHg13rGI-1" target="teNvgoAa5VFsvgRmOalm-4">
          <mxGeometry relative="1" as="geometry">
            <Array as="points">
              <mxPoint x="243" y="90" />
              <mxPoint x="360" y="90" />
            </Array>
          </mxGeometry>
        </mxCell>
        <mxCell id="_d4l0Of2Ugj4WHg13rGI-1" value="Start" style="ellipse;whiteSpace=wrap;html=1;" parent="1" vertex="1">
          <mxGeometry x="182.5" y="20" width="120" height="60" as="geometry" />
        </mxCell>
        <mxCell id="_d4l0Of2Ugj4WHg13rGI-15" style="edgeStyle=orthogonalEdgeStyle;rounded=0;orthogonalLoop=1;jettySize=auto;html=1;entryX=0.5;entryY=0;entryDx=0;entryDy=0;" parent="1" target="_d4l0Of2Ugj4WHg13rGI-4" edge="1">
          <mxGeometry relative="1" as="geometry">
            <mxPoint x="120" y="430" as="sourcePoint" />
          </mxGeometry>
        </mxCell>
        <mxCell id="teNvgoAa5VFsvgRmOalm-10" style="edgeStyle=orthogonalEdgeStyle;rounded=0;orthogonalLoop=1;jettySize=auto;html=1;entryX=0.5;entryY=0;entryDx=0;entryDy=0;" edge="1" parent="1" source="_d4l0Of2Ugj4WHg13rGI-4" target="teNvgoAa5VFsvgRmOalm-8">
          <mxGeometry relative="1" as="geometry" />
        </mxCell>
        <mxCell id="teNvgoAa5VFsvgRmOalm-62" style="edgeStyle=orthogonalEdgeStyle;rounded=0;orthogonalLoop=1;jettySize=auto;html=1;entryX=0.5;entryY=1;entryDx=0;entryDy=0;" edge="1" parent="1" source="_d4l0Of2Ugj4WHg13rGI-4" target="teNvgoAa5VFsvgRmOalm-61">
          <mxGeometry relative="1" as="geometry" />
        </mxCell>
        <mxCell id="_d4l0Of2Ugj4WHg13rGI-4" value="Is movement detected?" style="rhombus;whiteSpace=wrap;html=1;" parent="1" vertex="1">
          <mxGeometry x="70" y="470" width="100" height="100" as="geometry" />
        </mxCell>
        <mxCell id="teNvgoAa5VFsvgRmOalm-11" style="edgeStyle=orthogonalEdgeStyle;rounded=0;orthogonalLoop=1;jettySize=auto;html=1;exitX=0;exitY=0.5;exitDx=0;exitDy=0;entryX=0.5;entryY=0;entryDx=0;entryDy=0;" edge="1" parent="1" source="_d4l0Of2Ugj4WHg13rGI-11" target="teNvgoAa5VFsvgRmOalm-8">
          <mxGeometry relative="1" as="geometry" />
        </mxCell>
        <mxCell id="teNvgoAa5VFsvgRmOalm-65" style="edgeStyle=orthogonalEdgeStyle;rounded=0;orthogonalLoop=1;jettySize=auto;html=1;entryX=0.5;entryY=1;entryDx=0;entryDy=0;" edge="1" parent="1" source="_d4l0Of2Ugj4WHg13rGI-11" target="teNvgoAa5VFsvgRmOalm-64">
          <mxGeometry relative="1" as="geometry" />
        </mxCell>
        <mxCell id="_d4l0Of2Ugj4WHg13rGI-11" value="Is movement detected?" style="rhombus;whiteSpace=wrap;html=1;" parent="1" vertex="1">
          <mxGeometry x="310" y="470" width="100" height="100" as="geometry" />
        </mxCell>
        <mxCell id="_d4l0Of2Ugj4WHg13rGI-24" value="Yes" style="text;html=1;align=center;verticalAlign=middle;resizable=0;points=[];autosize=1;strokeColor=none;fillColor=none;" parent="1" vertex="1">
          <mxGeometry x="220" y="490" width="40" height="30" as="geometry" />
        </mxCell>
        <mxCell id="_d4l0Of2Ugj4WHg13rGI-30" value="No" style="text;html=1;align=center;verticalAlign=middle;resizable=0;points=[];autosize=1;strokeColor=none;fillColor=none;" parent="1" vertex="1">
          <mxGeometry x="40" y="490" width="40" height="30" as="geometry" />
        </mxCell>
        <mxCell id="_d4l0Of2Ugj4WHg13rGI-31" value="No" style="text;html=1;align=center;verticalAlign=middle;resizable=0;points=[];autosize=1;strokeColor=none;fillColor=none;" parent="1" vertex="1">
          <mxGeometry x="400" y="490" width="40" height="30" as="geometry" />
        </mxCell>
        <mxCell id="teNvgoAa5VFsvgRmOalm-16" style="edgeStyle=orthogonalEdgeStyle;rounded=0;orthogonalLoop=1;jettySize=auto;html=1;entryX=0.5;entryY=0;entryDx=0;entryDy=0;" edge="1" parent="1" source="teNvgoAa5VFsvgRmOalm-1" target="teNvgoAa5VFsvgRmOalm-2">
          <mxGeometry relative="1" as="geometry" />
        </mxCell>
        <mxCell id="teNvgoAa5VFsvgRmOalm-1" value="Turn on Illegal Lane Change Device 1" style="whiteSpace=wrap;html=1;" vertex="1" parent="1">
          <mxGeometry x="60" y="130" width="120" height="60" as="geometry" />
        </mxCell>
        <mxCell id="teNvgoAa5VFsvgRmOalm-17" style="edgeStyle=orthogonalEdgeStyle;rounded=0;orthogonalLoop=1;jettySize=auto;html=1;" edge="1" parent="1" source="teNvgoAa5VFsvgRmOalm-2" target="teNvgoAa5VFsvgRmOalm-3">
          <mxGeometry relative="1" as="geometry" />
        </mxCell>
        <mxCell id="teNvgoAa5VFsvgRmOalm-2" value="Device 1 connects to WiFi network and subscribes to &quot;ILC&quot; MQTT topic" style="whiteSpace=wrap;html=1;" vertex="1" parent="1">
          <mxGeometry x="60" y="210" width="120" height="60" as="geometry" />
        </mxCell>
        <mxCell id="teNvgoAa5VFsvgRmOalm-18" style="edgeStyle=orthogonalEdgeStyle;rounded=0;orthogonalLoop=1;jettySize=auto;html=1;entryX=0.5;entryY=0;entryDx=0;entryDy=0;" edge="1" parent="1" source="teNvgoAa5VFsvgRmOalm-3" target="teNvgoAa5VFsvgRmOalm-6">
          <mxGeometry relative="1" as="geometry" />
        </mxCell>
        <mxCell id="teNvgoAa5VFsvgRmOalm-3" value="Device 1 connects to Device 2 via ESP-NOW Protocol (Receiver)" style="whiteSpace=wrap;html=1;" vertex="1" parent="1">
          <mxGeometry x="60" y="290" width="120" height="60" as="geometry" />
        </mxCell>
        <mxCell id="teNvgoAa5VFsvgRmOalm-19" style="edgeStyle=orthogonalEdgeStyle;rounded=0;orthogonalLoop=1;jettySize=auto;html=1;" edge="1" parent="1" source="teNvgoAa5VFsvgRmOalm-4" target="teNvgoAa5VFsvgRmOalm-5">
          <mxGeometry relative="1" as="geometry" />
        </mxCell>
        <mxCell id="teNvgoAa5VFsvgRmOalm-4" value="Turn on Illegal Lane Change Device 2" style="whiteSpace=wrap;html=1;" vertex="1" parent="1">
          <mxGeometry x="300" y="130" width="120" height="60" as="geometry" />
        </mxCell>
        <mxCell id="teNvgoAa5VFsvgRmOalm-20" style="edgeStyle=orthogonalEdgeStyle;rounded=0;orthogonalLoop=1;jettySize=auto;html=1;" edge="1" parent="1" source="teNvgoAa5VFsvgRmOalm-5" target="teNvgoAa5VFsvgRmOalm-7">
          <mxGeometry relative="1" as="geometry" />
        </mxCell>
        <mxCell id="teNvgoAa5VFsvgRmOalm-5" value="Device 2 connects to Device 1 via ESP-NOW (Sender)" style="whiteSpace=wrap;html=1;" vertex="1" parent="1">
          <mxGeometry x="300" y="210" width="120" height="60" as="geometry" />
        </mxCell>
        <mxCell id="teNvgoAa5VFsvgRmOalm-6" value="Device 1 PIR sensor awaits movement" style="whiteSpace=wrap;html=1;" vertex="1" parent="1">
          <mxGeometry x="60" y="370" width="120" height="60" as="geometry" />
        </mxCell>
        <mxCell id="teNvgoAa5VFsvgRmOalm-15" style="edgeStyle=orthogonalEdgeStyle;rounded=0;orthogonalLoop=1;jettySize=auto;html=1;entryX=0.5;entryY=0;entryDx=0;entryDy=0;" edge="1" parent="1" source="teNvgoAa5VFsvgRmOalm-7" target="_d4l0Of2Ugj4WHg13rGI-11">
          <mxGeometry relative="1" as="geometry" />
        </mxCell>
        <mxCell id="teNvgoAa5VFsvgRmOalm-7" value="Device 2 PIR sensor awaits movement" style="whiteSpace=wrap;html=1;" vertex="1" parent="1">
          <mxGeometry x="300" y="290" width="120" height="60" as="geometry" />
        </mxCell>
        <mxCell id="teNvgoAa5VFsvgRmOalm-9" style="edgeStyle=orthogonalEdgeStyle;rounded=0;orthogonalLoop=1;jettySize=auto;html=1;entryX=0.5;entryY=0;entryDx=0;entryDy=0;" edge="1" parent="1" source="teNvgoAa5VFsvgRmOalm-8">
          <mxGeometry relative="1" as="geometry">
            <mxPoint x="240" y="670" as="targetPoint" />
          </mxGeometry>
        </mxCell>
        <mxCell id="teNvgoAa5VFsvgRmOalm-8" value="Device 1 determines if both sensors were triggered at the same time" style="whiteSpace=wrap;html=1;" vertex="1" parent="1">
          <mxGeometry x="180" y="570" width="120" height="60" as="geometry" />
        </mxCell>
        <mxCell id="teNvgoAa5VFsvgRmOalm-60" value="" style="edgeStyle=orthogonalEdgeStyle;rounded=0;orthogonalLoop=1;jettySize=auto;html=1;" edge="1" parent="1" source="teNvgoAa5VFsvgRmOalm-26" target="teNvgoAa5VFsvgRmOalm-32">
          <mxGeometry relative="1" as="geometry" />
        </mxCell>
        <mxCell id="teNvgoAa5VFsvgRmOalm-26" value="A" style="ellipse;whiteSpace=wrap;html=1;aspect=fixed;" vertex="1" parent="1">
          <mxGeometry x="645" y="30" width="50" height="50" as="geometry" />
        </mxCell>
        <mxCell id="teNvgoAa5VFsvgRmOalm-27" value="B" style="ellipse;whiteSpace=wrap;html=1;aspect=fixed;" vertex="1" parent="1">
          <mxGeometry x="500" y="290" width="50" height="50" as="geometry" />
        </mxCell>
        <mxCell id="teNvgoAa5VFsvgRmOalm-28" value="C" style="ellipse;whiteSpace=wrap;html=1;aspect=fixed;" vertex="1" parent="1">
          <mxGeometry x="790" y="290" width="50" height="50" as="geometry" />
        </mxCell>
        <mxCell id="teNvgoAa5VFsvgRmOalm-30" style="edgeStyle=orthogonalEdgeStyle;rounded=0;orthogonalLoop=1;jettySize=auto;html=1;entryX=0.5;entryY=0;entryDx=0;entryDy=0;exitX=0.5;exitY=1;exitDx=0;exitDy=0;" edge="1" parent="1" source="teNvgoAa5VFsvgRmOalm-41" target="teNvgoAa5VFsvgRmOalm-35">
          <mxGeometry relative="1" as="geometry">
            <mxPoint x="670" y="385" as="sourcePoint" />
          </mxGeometry>
        </mxCell>
        <mxCell id="teNvgoAa5VFsvgRmOalm-31" style="edgeStyle=orthogonalEdgeStyle;rounded=0;orthogonalLoop=1;jettySize=auto;html=1;exitX=0.5;exitY=1;exitDx=0;exitDy=0;entryX=0.5;entryY=0;entryDx=0;entryDy=0;" edge="1" parent="1" source="teNvgoAa5VFsvgRmOalm-32" target="teNvgoAa5VFsvgRmOalm-41">
          <mxGeometry relative="1" as="geometry" />
        </mxCell>
        <mxCell id="teNvgoAa5VFsvgRmOalm-43" style="edgeStyle=orthogonalEdgeStyle;rounded=0;orthogonalLoop=1;jettySize=auto;html=1;entryX=0.5;entryY=0;entryDx=0;entryDy=0;" edge="1" parent="1" source="teNvgoAa5VFsvgRmOalm-32" target="teNvgoAa5VFsvgRmOalm-27">
          <mxGeometry relative="1" as="geometry" />
        </mxCell>
        <mxCell id="teNvgoAa5VFsvgRmOalm-45" style="edgeStyle=orthogonalEdgeStyle;rounded=0;orthogonalLoop=1;jettySize=auto;html=1;entryX=0.5;entryY=0;entryDx=0;entryDy=0;" edge="1" parent="1" source="teNvgoAa5VFsvgRmOalm-32" target="teNvgoAa5VFsvgRmOalm-28">
          <mxGeometry relative="1" as="geometry" />
        </mxCell>
        <mxCell id="teNvgoAa5VFsvgRmOalm-32" value="Was movement detected at the same time?" style="rhombus;whiteSpace=wrap;html=1;" vertex="1" parent="1">
          <mxGeometry x="607.5" y="115" width="125" height="120" as="geometry" />
        </mxCell>
        <mxCell id="teNvgoAa5VFsvgRmOalm-33" value="End" style="ellipse;whiteSpace=wrap;html=1;" vertex="1" parent="1">
          <mxGeometry x="610" y="525" width="120" height="60" as="geometry" />
        </mxCell>
        <mxCell id="teNvgoAa5VFsvgRmOalm-34" style="edgeStyle=orthogonalEdgeStyle;rounded=0;orthogonalLoop=1;jettySize=auto;html=1;exitX=0.5;exitY=1;exitDx=0;exitDy=0;entryX=0.5;entryY=0;entryDx=0;entryDy=0;" edge="1" parent="1" source="teNvgoAa5VFsvgRmOalm-35" target="teNvgoAa5VFsvgRmOalm-33">
          <mxGeometry relative="1" as="geometry" />
        </mxCell>
        <mxCell id="teNvgoAa5VFsvgRmOalm-44" style="edgeStyle=orthogonalEdgeStyle;rounded=0;orthogonalLoop=1;jettySize=auto;html=1;entryX=0.5;entryY=1;entryDx=0;entryDy=0;" edge="1" parent="1" source="teNvgoAa5VFsvgRmOalm-35" target="teNvgoAa5VFsvgRmOalm-27">
          <mxGeometry relative="1" as="geometry" />
        </mxCell>
        <mxCell id="teNvgoAa5VFsvgRmOalm-46" style="edgeStyle=orthogonalEdgeStyle;rounded=0;orthogonalLoop=1;jettySize=auto;html=1;entryX=0.5;entryY=1;entryDx=0;entryDy=0;" edge="1" parent="1" source="teNvgoAa5VFsvgRmOalm-35" target="teNvgoAa5VFsvgRmOalm-28">
          <mxGeometry relative="1" as="geometry">
            <mxPoint x="800" y="375" as="targetPoint" />
          </mxGeometry>
        </mxCell>
        <mxCell id="teNvgoAa5VFsvgRmOalm-35" value="Turn off hardware?" style="rhombus;whiteSpace=wrap;html=1;" vertex="1" parent="1">
          <mxGeometry x="615" y="395" width="110" height="100" as="geometry" />
        </mxCell>
        <mxCell id="teNvgoAa5VFsvgRmOalm-36" value="No" style="text;html=1;align=center;verticalAlign=middle;resizable=0;points=[];autosize=1;strokeColor=none;fillColor=none;" vertex="1" parent="1">
          <mxGeometry x="575" y="145" width="40" height="30" as="geometry" />
        </mxCell>
        <mxCell id="teNvgoAa5VFsvgRmOalm-37" value="No" style="text;html=1;align=center;verticalAlign=middle;resizable=0;points=[];autosize=1;strokeColor=none;fillColor=none;" vertex="1" parent="1">
          <mxGeometry x="725" y="145" width="40" height="30" as="geometry" />
        </mxCell>
        <mxCell id="teNvgoAa5VFsvgRmOalm-38" value="Yes" style="text;html=1;align=center;verticalAlign=middle;resizable=0;points=[];autosize=1;strokeColor=none;fillColor=none;" vertex="1" parent="1">
          <mxGeometry x="630" y="235" width="40" height="30" as="geometry" />
        </mxCell>
        <mxCell id="teNvgoAa5VFsvgRmOalm-39" value="Yes" style="text;html=1;align=center;verticalAlign=middle;resizable=0;points=[];autosize=1;strokeColor=none;fillColor=none;" vertex="1" parent="1">
          <mxGeometry x="620" y="485" width="40" height="30" as="geometry" />
        </mxCell>
        <mxCell id="teNvgoAa5VFsvgRmOalm-40" value="No" style="text;html=1;align=center;verticalAlign=middle;resizable=0;points=[];autosize=1;strokeColor=none;fillColor=none;" vertex="1" parent="1">
          <mxGeometry x="720" y="415" width="40" height="30" as="geometry" />
        </mxCell>
        <mxCell id="teNvgoAa5VFsvgRmOalm-41" value="Device 1 sends a signal: &quot;1 ILC&quot; to the Recording System to save the video via MQTT" style="whiteSpace=wrap;html=1;" vertex="1" parent="1">
          <mxGeometry x="600" y="275" width="140" height="80" as="geometry" />
        </mxCell>
        <mxCell id="teNvgoAa5VFsvgRmOalm-42" value="No" style="text;html=1;align=center;verticalAlign=middle;resizable=0;points=[];autosize=1;strokeColor=none;fillColor=none;" vertex="1" parent="1">
          <mxGeometry x="580" y="415" width="40" height="30" as="geometry" />
        </mxCell>
        <mxCell id="teNvgoAa5VFsvgRmOalm-63" style="edgeStyle=orthogonalEdgeStyle;rounded=0;orthogonalLoop=1;jettySize=auto;html=1;exitX=0.5;exitY=0;exitDx=0;exitDy=0;entryX=0;entryY=0.5;entryDx=0;entryDy=0;" edge="1" parent="1" source="teNvgoAa5VFsvgRmOalm-61" target="teNvgoAa5VFsvgRmOalm-6">
          <mxGeometry relative="1" as="geometry" />
        </mxCell>
        <mxCell id="teNvgoAa5VFsvgRmOalm-61" value="B" style="ellipse;whiteSpace=wrap;html=1;aspect=fixed;" vertex="1" parent="1">
          <mxGeometry y="445" width="50" height="50" as="geometry" />
        </mxCell>
        <mxCell id="teNvgoAa5VFsvgRmOalm-66" style="edgeStyle=orthogonalEdgeStyle;rounded=0;orthogonalLoop=1;jettySize=auto;html=1;entryX=1;entryY=0.5;entryDx=0;entryDy=0;" edge="1" parent="1" source="teNvgoAa5VFsvgRmOalm-64" target="teNvgoAa5VFsvgRmOalm-7">
          <mxGeometry relative="1" as="geometry" />
        </mxCell>
        <mxCell id="teNvgoAa5VFsvgRmOalm-64" value="C" style="ellipse;whiteSpace=wrap;html=1;aspect=fixed;" vertex="1" parent="1">
          <mxGeometry x="420" y="440" width="50" height="50" as="geometry" />
        </mxCell>
        <mxCell id="teNvgoAa5VFsvgRmOalm-67" value="A" style="ellipse;whiteSpace=wrap;html=1;aspect=fixed;" vertex="1" parent="1">
          <mxGeometry x="215" y="670" width="50" height="50" as="geometry" />
        </mxCell>
      </root>
    </mxGraphModel>
  </diagram>
</mxfile>
